<svg xmlns="http://www.w3.org/2000/svg" width="14" height="17.778" viewBox="0 0 14 17.778">
  <g id="Polygon_2" data-name="Polygon 2" transform="translate(14) rotate(90)" fill="none">
    <path d="M8.045,1.33a1,1,0,0,1,1.688,0L16.8,12.464A1,1,0,0,1,15.958,14H1.819a1,1,0,0,1-.844-1.536Z" stroke="none"/>
    <path d="M 8.888889312744141 3.731295585632324 L 3.638909339904785 12 L 14.13886451721191 12 L 8.888889312744141 3.731295585632324 M 8.888889312744141 0.8656425476074219 C 9.212797164916992 0.8656425476074219 9.536704063415527 1.020305633544922 9.733098983764648 1.329629898071289 L 16.80253982543945 12.46399021148682 C 17.22525024414062 13.1297607421875 16.74695014953613 14 15.95831966400146 14 L 1.819458961486816 14 C 1.030828475952148 14 0.5525283813476562 13.1297607421875 0.9752388000488281 12.46399021148682 L 8.044679641723633 1.329629898071289 C 8.241074562072754 1.020305633544922 8.564981460571289 0.8656425476074219 8.888889312744141 0.8656425476074219 Z" stroke="none" fill="#1b1e21"/>
  </g>
</svg>
