<svg xmlns="http://www.w3.org/2000/svg" width="14" height="17.111" viewBox="0 0 14 17.111">
  <g id="Polygon_5" data-name="Polygon 5" transform="translate(0 17.111) rotate(-90)" fill="none">
    <path d="M7.7,1.4a1,1,0,0,1,1.707,0l6.772,11.082A1,1,0,0,1,15.328,14H1.783A1,1,0,0,1,.93,12.479Z" stroke="none"/>
    <path d="M 8.555538177490234 3.835457801818848 L 3.566110610961914 11.99997615814209 L 13.54497528076172 11.99997615814209 L 8.555538177490234 3.835457801818848 M 8.5555419921875 0.9177312850952148 C 8.884699821472168 0.9177312850952148 9.213857650756836 1.077245712280273 9.408822059631348 1.396276473999023 L 16.18131256103516 12.47852611541748 C 16.58852195739746 13.14487648010254 16.10895156860352 13.99997615814209 15.32803153991699 13.99997615814209 L 1.783052444458008 13.99997615814209 C 1.00212287902832 13.99997615814209 0.5225620269775391 13.14487648010254 0.9297714233398438 12.47852611541748 L 7.702261924743652 1.396276473999023 C 7.89722728729248 1.077245712280273 8.226384162902832 0.9177312850952148 8.5555419921875 0.9177312850952148 Z" stroke="none" fill="#1b1e21"/>
  </g>
</svg>
