<?xml version="1.0" encoding="utf-8"?>
<!-- Generator: Adobe Illustrator 24.0.3, SVG Export Plug-In . SVG Version: 6.00 Build 0)  -->
<svg version="1.1" id="Layer_1" xmlns="http://www.w3.org/2000/svg" xmlns:xlink="http://www.w3.org/1999/xlink" x="0px" y="0px"
	 viewBox="0 0 52 52" style="enable-background:new 0 0 52 52;" xml:space="preserve">
<g id="Path_1530">
	<path d="M26,52C11.7,52,0,40.3,0,26C0,11.7,11.7,0,26,0h0c14.3,0,26,11.7,26,26C52,40.3,40.3,52,26,52z M26,2C12.8,2,2,12.8,2,26
		s10.8,24,24,24s24-10.8,24-24C50,12.8,39.2,2,26,2L26,2z M23.7,35.9c-0.8,0-1.6-0.3-2.2-0.9l-6.8-6.8c-0.6-0.6-0.9-1.4-0.9-2.2
		s0.3-1.6,0.9-2.2c1.2-1.2,3.2-1.2,4.4,0l4.6,4.6L35,17c1.2-1.2,3.2-1.2,4.4,0c1.2,1.2,1.2,3.2,0,4.4l-0.5,0.5l0,0l-13,13
		C25.2,35.5,24.4,35.9,23.7,35.9z M16.9,24.9c-0.3,0-0.6,0.1-0.8,0.3c-0.2,0.2-0.3,0.5-0.3,0.8c0,0.3,0.1,0.6,0.3,0.8l6.8,6.8
		c0.4,0.4,1.1,0.4,1.5,0L38,19.9c0.4-0.4,0.4-1.1,0-1.5c-0.4-0.4-1.1-0.4-1.5,0L23.7,31.2l-6-6C17.4,25,17.2,24.9,16.9,24.9z"/>
</g>
</svg>
