<svg id="Group_41" data-name="Group 41" xmlns="http://www.w3.org/2000/svg" width="36.71" height="36.594" viewBox="0 0 36.71 36.594">
  <path id="Path_41" data-name="Path 41" d="M515.576,831.525q-.229.036-.461.066.231-.03.461-.066Zm0,0" transform="translate(-494.261 -795.16)"/>
  <path id="Path_42" data-name="Path 42" d="M516.992,831.355l-.219.037.219-.037Zm0,0" transform="translate(-495.311 -795.049)"/>
  <path id="Path_43" data-name="Path 43" d="M513.068,831.852c-.179.02-.359.037-.54.051.18-.014.361-.031.54-.051Zm0,0" transform="translate(-492.624 -795.372)"/>
  <path id="Path_44" data-name="Path 44" d="M514.513,831.734l-.259.031.259-.031Zm0,0" transform="translate(-493.716 -795.295)"/>
  <path id="Path_45" data-name="Path 45" d="M518.4,831.084l-.194.039.194-.039Zm0,0" transform="translate(-496.216 -794.874)"/>
  <path id="Path_46" data-name="Path 46" d="M521.84,830.245l-.156.042.156-.042Zm0,0" transform="translate(-498.419 -794.33)"/>
  <path id="Path_47" data-name="Path 47" d="M520.794,830.524l-.17.042.17-.042Zm0,0" transform="translate(-497.748 -794.51)"/>
  <path id="Path_48" data-name="Path 48" d="M519.439,830.859l-.181.039.181-.039Zm0,0" transform="translate(-496.883 -794.728)"/>
  <path id="Path_49" data-name="Path 49" d="M512.012,832c-.1.008-.193.015-.29.021.1-.006.194-.013.29-.021Zm0,0" transform="translate(-492.114 -795.467)"/>
  <path id="Path_50" data-name="Path 50" d="M495.018,750.473a18.355,18.355,0,1,0-18.355,18.3c.108,0,.215,0,.323,0V754.522h-3.944v-4.581h3.944V746.57c0-3.91,2.394-6.038,5.893-6.038a32.513,32.513,0,0,1,3.535.18V744.8H484c-1.9,0-2.272.9-2.272,2.225v2.918h4.551l-.593,4.581h-3.958v13.54a18.315,18.315,0,0,0,13.289-17.59Zm0,0" transform="translate(-458.308 -732.176)"/>
  <path id="Path_51" data-name="Path 51" d="M510.619,832.065c-.191.011-.383.021-.575.027.192-.006.384-.016.575-.027Zm0,0" transform="translate(-491.052 -795.51)"/>
  <path id="Path_52" data-name="Path 52" d="M509.492,832.144l-.305.007.305-.007Zm0,0" transform="translate(-490.51 -795.562)"/>
</svg>
