<svg xmlns="http://www.w3.org/2000/svg" width="36.709" height="36.594" viewBox="0 0 36.709 36.594">
  <g id="Group_39" data-name="Group 39" transform="translate(0)">
    <path id="Path_37" data-name="Path 37" d="M805.764,775.968a3.517,3.517,0,1,1-3.513-3.362,3.44,3.44,0,0,1,3.513,3.362Zm0,0" transform="translate(-783.896 -757.671)"/>
    <path id="Path_38" data-name="Path 38" d="M801.626,760.959a3.123,3.123,0,0,0-.788-1.16,3.29,3.29,0,0,0-1.212-.755,6.058,6.058,0,0,0-1.957-.347c-1.112-.049-1.445-.059-4.259-.059s-3.148.01-4.259.059a6.069,6.069,0,0,0-1.957.347,3.285,3.285,0,0,0-1.212.755,3.119,3.119,0,0,0-.789,1.16,5.383,5.383,0,0,0-.363,1.873c-.051,1.063-.062,1.382-.062,4.076s.011,3.012.062,4.076a5.384,5.384,0,0,0,.363,1.873,3.116,3.116,0,0,0,.788,1.16,3.281,3.281,0,0,0,1.212.755,6.06,6.06,0,0,0,1.957.347c1.111.049,1.444.059,4.259.059s3.148-.011,4.259-.059a6.057,6.057,0,0,0,1.957-.347,3.418,3.418,0,0,0,2-1.914,5.373,5.373,0,0,0,.363-1.873c.051-1.064.061-1.383.061-4.076s-.011-3.012-.061-4.076a5.351,5.351,0,0,0-.363-1.873Zm-8.216,11.127a5.184,5.184,0,1,1,5.412-5.179,5.3,5.3,0,0,1-5.412,5.179Zm5.626-9.352a1.212,1.212,0,1,1,1.265-1.211,1.239,1.239,0,0,1-1.265,1.211Zm0,0" transform="translate(-775.055 -748.611)"/>
    <path id="Path_39" data-name="Path 39" d="M776.663,732.176a18.3,18.3,0,1,0,18.355,18.3,18.328,18.328,0,0,0-18.355-18.3ZM787.139,754.8a7.67,7.67,0,0,1-.49,2.551,5.382,5.382,0,0,1-3.082,3.073,7.772,7.772,0,0,1-2.558.488c-1.124.051-1.483.063-4.345.063s-3.222-.012-4.345-.063a7.77,7.77,0,0,1-2.558-.488,5.38,5.38,0,0,1-3.083-3.073,7.709,7.709,0,0,1-.49-2.55c-.052-1.121-.064-1.479-.064-4.332s.012-3.211.064-4.332a7.678,7.678,0,0,1,.489-2.55,5.384,5.384,0,0,1,3.083-3.073,7.753,7.753,0,0,1,2.559-.488c1.124-.051,1.483-.064,4.345-.064s3.221.012,4.345.064a7.76,7.76,0,0,1,2.558.488,5.381,5.381,0,0,1,3.082,3.073,7.681,7.681,0,0,1,.49,2.55c.051,1.12.063,1.479.063,4.332s-.012,3.211-.064,4.332Zm0,0" transform="translate(-758.308 -732.176)"/>
  </g>
</svg>
