<svg id="Group_42" data-name="Group 42" xmlns="http://www.w3.org/2000/svg" width="36.709" height="36.594" viewBox="0 0 36.709 36.594">
  <path id="Path_53" data-name="Path 53" d="M1102.946,764.319h-14.811l7.405,6.074Zm0,0" transform="translate(-1077.185 -752.458)"/>
  <path id="Path_54" data-name="Path 54" d="M1093.615,773.206a.673.673,0,0,1-.427-.151l-8.1-6.64v11.81h17.044v-11.81l-8.1,6.64a.671.671,0,0,1-.426.151Zm0,0" transform="translate(-1075.26 -753.632)"/>
  <path id="Path_55" data-name="Path 55" d="M1076.663,732.176a18.3,18.3,0,1,0,18.355,18.3,18.326,18.326,0,0,0-18.355-18.3Zm9.833,25.485a.654.654,0,0,1-.655.653h-18.355a.655.655,0,0,1-.656-.653V743.285a.655.655,0,0,1,.656-.653h18.355a.654.654,0,0,1,.655.653Zm0,0" transform="translate(-1058.308 -732.176)"/>
</svg>
