<svg xmlns="http://www.w3.org/2000/svg" width="36.71" height="36.594" viewBox="0 0 36.71 36.594">
  <g id="Group_40" data-name="Group 40" transform="translate(0)">
    <path id="Path_40" data-name="Path 40" d="M626.663,732.176a18.3,18.3,0,1,0,18.355,18.3,18.328,18.328,0,0,0-18.355-18.3Zm-5.334,27.66h-4.47V746.43h4.47ZM619.094,744.6h-.029a2.555,2.555,0,1,1,.029,0Zm18.354,15.237h-4.47v-7.172c0-1.8-.647-3.032-2.265-3.032a2.447,2.447,0,0,0-2.294,1.63,3.044,3.044,0,0,0-.147,1.087v7.487H623.8s.059-12.148,0-13.406h4.47v1.9a4.44,4.44,0,0,1,4.029-2.213c2.941,0,5.146,1.916,5.146,6.033Zm0,0" transform="translate(-608.308 -732.176)"/>
  </g>
</svg>
