<svg xmlns="http://www.w3.org/2000/svg" width="11.28" height="11.28" viewBox="0 0 11.28 11.28">
  <g id="Group_575" data-name="Group 575" transform="translate(0 0)">
    <path id="Path_1526" data-name="Path 1526" d="M952.888,427H949.01a.7.7,0,1,0,0,1.391h2.2l-3.67,3.67a.7.7,0,1,0,.983.983l3.67-3.67v2.2a.7.7,0,0,0,1.391,0V427.7a.7.7,0,0,0-.7-.7Zm0,0" transform="translate(-942.304 -427)" fill="#1b1e21"/>
    <path id="Path_1527" data-name="Path 1527" d="M853.991,477.218h-6.8v-6.8h5.114l1.192-1.192h-6.9a.6.6,0,0,0-.6.6v7.991a.6.6,0,0,0,.6.6h7.991a.6.6,0,0,0,.6-.6v-6.9l-1.192,1.192Zm0,0" transform="translate(-846 -467.13)" fill="#1b1e21"/>
  </g>
</svg>
