<svg xmlns="http://www.w3.org/2000/svg" width="15.383" height="17.21" viewBox="0 0 15.383 17.21">
  <g id="Group_52" data-name="Group 52" transform="translate(-912 -482.113)">
    <g id="Group_52-2" data-name="Group 52" transform="translate(912 484.715)">
      <path id="Path_61" data-name="Path 61" d="M919.692,506.531A7.692,7.692,0,0,1,916.176,492a.663.663,0,0,1,.607,1.179,6.366,6.366,0,1,0,5.948.069.663.663,0,1,1,.634-1.165,7.692,7.692,0,0,1-3.673,14.451Z" transform="translate(-912 -491.923)"/>
    </g>
    <g id="Group_53" data-name="Group 53" transform="translate(916.396 482.113)">
      <path id="Path_62" data-name="Path 62" d="M930.523,488.153a.664.664,0,0,1-.575-.992l1.385-2.424-2.424-1.384a.663.663,0,1,1,.658-1.152l3,1.714a.663.663,0,0,1,.247.9l-1.714,3A.663.663,0,0,1,930.523,488.153Z" transform="translate(-928.574 -482.113)"/>
    </g>
  </g>
</svg>
