<?xml version="1.0" encoding="utf-8"?>
<!-- Generator: Adobe Illustrator 24.0.3, SVG Export Plug-In . SVG Version: 6.00 Build 0)  -->
<svg version="1.1" id="Layer_1" xmlns="http://www.w3.org/2000/svg" xmlns:xlink="http://www.w3.org/1999/xlink" x="0px" y="0px"
	 viewBox="0 0 27.3 27.2" style="enable-background:new 0 0 27.3 27.2;" xml:space="preserve">
<g id="Union_1" transform="translate(-13398.833 7864.195)">
	<path d="M13417.6-7845.2l0.9-1.3c1.3-1.8,1.9-3.9,1.8-6.2c-0.2-2.2-1.1-4.3-2.7-5.9c-3.6-3.6-9.5-3.6-13.1,0
		c-3.6,3.6-3.6,9.5,0,13.1c3.2,3.2,8.1,3.6,11.8,1.1L13417.6-7845.2 M13425.1-7837.6c-0.8,0.8-2.1,0.8-2.9,0l-4.2-4.2
		c-4.8,3.3-11.4,2.8-15.6-1.5c-4.8-4.8-4.8-12.6,0-17.4c4.8-4.8,12.6-4.8,17.4,0c4.3,4.3,4.8,11.1,1.2,15.9l4.1,4.1
		C13426-7839.7,13426-7838.4,13425.1-7837.6z"/>
</g>
</svg>
