<svg xmlns="http://www.w3.org/2000/svg" width="36.709" height="36.594" viewBox="0 0 36.709 36.594">
  <g id="Group_38" data-name="Group 38" transform="translate(0)">
    <path id="Path_35" data-name="Path 35" d="M926.663,732.176a18.3,18.3,0,1,0,18.355,18.3,18.328,18.328,0,0,0-18.355-18.3Zm.389,28.95h0a11.008,11.008,0,0,1-5.25-1.333l-5.824,1.523,1.559-5.673a10.993,10.993,0,1,1,9.52,5.483Zm0,0" transform="translate(-908.308 -732.176)"/>
    <path id="Path_36" data-name="Path 36" d="M943.628,756.487a9.317,9.317,0,0,0-9.135,9.466,9.706,9.706,0,0,0,1.4,5.038l.217.358-.923,3.494,3.456-.94.333.205a8.871,8.871,0,0,0,4.647,1.319h0a9.317,9.317,0,0,0,9.131-9.466,9.588,9.588,0,0,0-2.672-6.7,8.91,8.91,0,0,0-6.455-2.776ZM949,770.023a2.832,2.832,0,0,1-1.853,1.354,3.639,3.639,0,0,1-1.729-.113,15.374,15.374,0,0,1-1.565-.6,12.421,12.421,0,0,1-4.689-4.3,5.64,5.64,0,0,1-1.121-2.944,3.243,3.243,0,0,1,.961-2.374.993.993,0,0,1,.732-.356c.183,0,.366,0,.526.01s.395-.067.618.488c.229.57.777,1.971.846,2.113a.542.542,0,0,1,.023.5,8.163,8.163,0,0,1-.686.973c-.122.157-.281.3-.12.581a8.54,8.54,0,0,0,1.527,1.972,7.469,7.469,0,0,0,2.208,1.412c.274.142.435.118.594-.071s.686-.831.869-1.116.366-.237.617-.142,1.6.783,1.875.926.457.214.526.333a2.455,2.455,0,0,1-.16,1.353Zm0,0" transform="translate(-924.881 -747.946)"/>
  </g>
</svg>
