<?xml version="1.0" encoding="utf-8"?>
<!-- Generator: Adobe Illustrator 24.0.3, SVG Export Plug-In . SVG Version: 6.00 Build 0)  -->
<svg version="1.1" id="Layer_1" xmlns="http://www.w3.org/2000/svg" xmlns:xlink="http://www.w3.org/1999/xlink" x="0px" y="0px"
	 viewBox="0 0 52 52" style="enable-background:new 0 0 52 52;" xml:space="preserve">
<g id="Exclusion_1">
	<path d="M26,52L26,52C11.7,52,0,40.3,0,26C0,11.7,11.7,0,26,0c14.3,0,26,11.7,26,26C52,40.3,40.3,52,26,52z M26,2
		C12.8,2,2,12.8,2,26s10.8,24,24,24c13.2,0,24-10.8,24-24C50,12.8,39.2,2,26,2z M36.2,39.8c-0.8,0-1.6-0.3-2.2-0.9l-7.9-8.5L18,38.8
		c-0.6,0.6-1.4,0.9-2.2,0.9c-0.8,0-1.6-0.4-2.2-1c-1.2-1.2-1.1-3.2,0.1-4.4l8-8.5l-8.1-8.7c-0.6-0.6-0.9-1.3-0.9-2.2
		s0.3-1.6,0.9-2.2c1.2-1.2,3.2-1.2,4.4,0l7.9,8.5l8-8.3c1.2-1.2,3.2-1.2,4.4,0s1.2,3.2,0,4.4l-8,8.5l8.1,8.7c1.2,1.2,1.2,3.1,0,4.3
		C37.8,39.5,37,39.8,36.2,39.8z M26.1,27.5l9.4,10c0.4,0.4,1.1,0.4,1.5,0c0.4-0.4,0.4-1.1,0-1.5l-9.4-10.1l9.4-9.9
		c0.4-0.4,0.4-1.1,0-1.6c-0.4-0.4-1.1-0.4-1.5,0L26,24.2l-9.4-10c-0.4-0.4-1.1-0.4-1.5,0c-0.2,0.2-0.3,0.5-0.3,0.8s0.1,0.6,0.3,0.8
		l9.4,10.1l-9.4,9.9c-0.5,0.4-0.5,1.1-0.1,1.6c0.2,0.2,0.5,0.3,0.8,0.3c0.3,0,0.6-0.1,0.8-0.3L26.1,27.5z"/>
</g>
</svg>
