<svg id="e91cd9f6-48ad-491a-8ec3-e895111bd27b" data-name="Layer 1" xmlns="http://www.w3.org/2000/svg" viewBox="0 0 27.2 19.84"><defs><style>.a77e45ae-6539-4a24-b00d-33daff11be9c{fill:#fff;}.ae0b8701-30bd-4d3b-965b-cdbb161723b0{fill:#ea9b1c;}</style></defs><title>arrow-01-bottom</title><path id="bf56ac94-2b99-47c4-b5bb-9e1e6832048f" data-name="up-white" class="a77e45ae-6539-4a24-b00d-33daff11be9c" d="M27.69.71a.86.86,0,0,1-.27.66L14.75,14a.93.93,0,0,1-1.31,0h0L.77,1.37A.92.92,0,0,1,.77.05a.94.94,0,0,1,1.32,0h0l12,12,12-12a.94.94,0,0,1,1.32,0,.91.91,0,0,1,.27.66Z" transform="translate(-0.49 0.22)"/><path id="a8454091-ad12-46f6-b685-d450a776ea0a" data-name="down-orange" class="ae0b8701-30bd-4d3b-965b-cdbb161723b0" d="M24.37,9.18a.74.74,0,0,1-.21.51l-9.72,9.72a.72.72,0,0,1-1,0h0L3.7,9.69a.71.71,0,0,1,0-1,.72.72,0,0,1,1,0l9.21,9.21,9.21-9.21a.72.72,0,0,1,1,0,.71.71,0,0,1,.21.5Z" transform="translate(-0.49 0.22)"/></svg>