<svg id="aeb0be6b-7519-4404-8336-068ac33bcd30" data-name="Layer 1" xmlns="http://www.w3.org/2000/svg" viewBox="0 0 10 11.91"><defs><style>.f3065f6f-cdf8-4b5d-9121-ad36e1e9f8f3{fill:none;}.bbdfcdab-0d31-45a8-b8ec-d29293d7f8f4{fill:#1b1e21;}</style></defs><title>arrow-01-right</title><g id="b75f11da-966a-4931-91f1-1da174822cb4" data-name="Polygon 2"><path class="f3065f6f-cdf8-4b5d-9121-ad36e1e9f8f3" d="M9.51,5.15a1.07,1.07,0,0,1,.37,1.4,1,1,0,0,1-.37.39L1.42,11.87a.92.92,0,0,1-1.3-.39A1.13,1.13,0,0,1,0,11V1.12a1,1,0,0,1,1-1,.85.85,0,0,1,.47.13Z" transform="translate(0 -0.09)"/><path class="bbdfcdab-0d31-45a8-b8ec-d29293d7f8f4" d="M9.05,6h0L1,1.12H1V11H1L9.05,6h0M10,6a1,1,0,0,1-.49.9L1.42,11.87A1,1,0,0,1,0,11V1.12A1,1,0,0,1,1.42.22L9.51,5.15A1,1,0,0,1,10,6Z" transform="translate(0 -0.09)"/></g></svg>