<?xml version="1.0" encoding="utf-8"?>
<!-- Generator: Adobe Illustrator 24.0.3, SVG Export Plug-In . SVG Version: 6.00 Build 0)  -->
<svg version="1.1" id="aeb0be6b-7519-4404-8336-068ac33bcd30"
	 xmlns="http://www.w3.org/2000/svg" xmlns:xlink="http://www.w3.org/1999/xlink" x="0px" y="0px" viewBox="0 0 10 11.9"
	 style="enable-background:new 0 0 10 11.9;" xml:space="preserve">
<style type="text/css">
	.st0{fill:none;}
	.st1{fill:#FFFFFF;}
</style>
<title>arrow-01-right</title>
<g id="b75f11da-966a-4931-91f1-1da174822cb4">
	<path class="st0" d="M9.5,5.1C10,5.4,10.1,6,9.9,6.5C9.8,6.6,9.7,6.8,9.5,6.8l-8.1,4.9c-0.4,0.3-1,0.1-1.3-0.3c0,0,0,0,0-0.1
		C0,11.2,0,11.1,0,10.9V1c0-0.6,0.4-1,1-1c0.2,0,0.3,0,0.5,0.1L9.5,5.1z"/>
	<path class="st1" d="M9.1,5.9L9.1,5.9L1,1l0,0v9.9l0,0L9.1,5.9L9.1,5.9 M10,5.9c0,0.4-0.2,0.7-0.5,0.9l-8.1,5
		c-0.5,0.2-1.1,0-1.3-0.5C0,11.2,0,11,0,10.9V1c0-0.6,0.5-1,1-1c0.1,0,0.3,0,0.4,0.1l8.1,4.9C9.8,5.2,10,5.6,10,5.9z"/>
</g>
</svg>
