<svg id="a7ec6a4b-d507-4a31-beb4-e0f71c9ab68e" data-name="estadao-raiox-logo-svg" xmlns="http://www.w3.org/2000/svg" viewBox="0 0 178.43 32.76">
    <defs>
        <style>
        .e5846ca3-6049-4448-a816-82566bd0b729{fill:#fff;}
        #b93f192d-3109-43a1-9484-20a5b4a0c062 {
          fill:#1b1e21;
          animation: b93f192d 2s cubic-bezier(0.77, 0, 0.175, 1) 1 normal forwards;
        }
        @keyframes b93f192d {
          0% {
            fill:#1b1e21;
          }
          100% {
            fill:#448CCB;
          }
        }        
        </style>
    </defs>
    <title>logo-estadao-raiox-white</title>
    <path id="b93f192d-3109-43a1-9484-20a5b4a0c062" data-name="letter_x" class="" d="M159,35.18l2.47-.45,6.8-8.46-6.53-9.68-2.16-.22V15.15h11.12v1.17L168,16.5l4.41,6.66,4.73-6.34-2.66-.45V15.15H182v1.22l-2.34.4-6.21,7.65,7,10.49,2.3.27v1.21H171.56V35.22l2.65-.18-4.9-7.47L164,34.73l2.7.45v1.21H159Z" transform="translate(-4.37 -4.31)" />
    <path id="f05fa821-e363-4f5e-8ee5-55017ce0c8e3" data-name="letter_o" class="e5846ca3-6049-4448-a816-82566bd0b729" d="M138.21,26c0-5.89,3.92-11.52,10.8-11.52s10.8,4.46,10.8,10.89S155.22,37.07,149,37.07C141.9,37.07,138.21,32.16,138.21,26Zm15.3-.31c0-5.54-1-9.5-4.45-9.5-3.24,0-4.55,3.24-4.55,9.5,0,6,1.08,9.72,4.5,9.72C152.66,35.45,153.51,30.9,153.51,25.73Z" transform="translate(-4.37 -4.31)" />
    <path id="beaffa28-31ce-4add-a35b-08be0cc380f0" data-name="letter_i" class="e5846ca3-6049-4448-a816-82566bd0b729" d="M126.69,35.22l2.57-.27V18l-2.52-.5V16.41l7.78-1.53H135c0,.32,0,4.64,0,6.08V35l2.56.27v1.22h-10.8Zm2.48-26.77a3.24,3.24,0,0,1,3.19-3.24,3.19,3.19,0,0,1,3.2,3.24,3.25,3.25,0,0,1-3.2,3.33A3.21,3.21,0,0,1,129.17,8.45Z" transform="translate(-4.37 -4.31)" />
    <path id="f91dcca9-5f89-4954-9407-6ca6946b13c0" data-name="letter_a" class="e5846ca3-6049-4448-a816-82566bd0b729" d="M106.13,32.25c0-4.41,5.58-6.84,11.2-8.32V21.05c0-2.75-1.44-4.55-4.36-4.55a5.65,5.65,0,0,0-3,.9v.18a2.89,2.89,0,0,1,2.11,2.79A2.64,2.64,0,0,1,109.5,23a2.6,2.6,0,0,1-2.88-2.79c0-3.37,4.28-5.67,8.73-5.67,5.13,0,7.56,2.21,7.56,5.72V31.49c0,.63.23,1.48,1.13,1.48s1.26-.76,1.26-2.52l1.17.05c0,3.91-1.4,6.39-4.77,6.39a3.84,3.84,0,0,1-4-3.78h-.09a7.51,7.51,0,0,1-6.48,4C108.15,37.07,106.13,35.13,106.13,32.25Zm11.2-1.66v-5.4c-3.69.85-5.8,3.33-5.8,5.8A2.61,2.61,0,0,0,114,33.87,3.25,3.25,0,0,0,117.33,30.59Z" transform="translate(-4.37 -4.31)" />
    <path id="fbecb9e2-f566-4603-b7c3-d8439f773fa9" data-name="letter_r" class="e5846ca3-6049-4448-a816-82566bd0b729" d="M94.47,33.42l-2.29-7.78c-.9-3.2-2.12-4.28-4.14-4.28H85.38V34.68l4.05.41v1.35H75.35V35.13l3.6-.4V6.06l-3.6-.36V4.4h6.3C84,4.35,88,4.31,90.33,4.31c6.71,0,10.58,3,10.58,8.28,0,4.27-3.83,7.29-8.33,7.74v.27c3.2.49,4.91,2.7,5.94,5.08L101,32.25c.54,1.53,1.26,2.57,2.39,2.57a17.11,17.11,0,0,0,2.29-.18l0,1.48a34.14,34.14,0,0,1-6.17.68C96.72,36.8,95.15,35.58,94.47,33.42ZM88.4,19.61c2.92,0,5.94-2.07,5.94-6.39,0-2.7-.77-4.86-2.39-5.94a7.05,7.05,0,0,0-4-1.17c-.85,0-1.48,0-2.52.09V19.61Z" transform="translate(-4.37 -4.31)" />
    <path id="a7b12ca7-2d3e-4152-84dd-b6edc586a858" data-name="estadao" class="e5846ca3-6049-4448-a816-82566bd0b729" d="M4.6,17.63a3.85,3.85,0,0,0,.08.58c.05.18.46,1.17.49,1.36a2,2,0,0,1,0,.49,2.11,2.11,0,0,0,.59.27c.15,0,.52-.34.68-.38,0-.43-.11-.47-.07-.69a3.12,3.12,0,0,1,.27-.74.61.61,0,0,0,0-.4.46.46,0,0,1,.07.32c0,.23-.24.58-.26.75a.54.54,0,0,0,0,.37,3.17,3.17,0,0,0,1.23-.39,9.37,9.37,0,0,1,.9-.44A5.48,5.48,0,0,0,8,17.66,3.12,3.12,0,0,0,7.18,17a2.48,2.48,0,0,0-1.34-.26,4.62,4.62,0,0,0-.84.16s-.27-.22-.47-.15l.12.32-.28.14A3.68,3.68,0,0,1,4.6,17.63Zm27.58,2.71A1.66,1.66,0,0,0,30.64,19a1.06,1.06,0,0,0-1.17.93v0c0,.74.74,1,1.93,1.43s3.07,1.12,3.07,3.29c0,1.83-1.33,3.42-4,3.42A3.83,3.83,0,0,1,27.59,27a4.18,4.18,0,0,1-1-1.79l2.14-.59a1.82,1.82,0,0,0,1.78,1.6c.84,0,1.43-.45,1.43-1.17s-.7-1.06-1.54-1.34c-1.52-.54-3.36-1.17-3.36-3.35a3.22,3.22,0,0,1,3.56-3.27,3.32,3.32,0,0,1,3.59,2.48Zm-5.9-2.92v1.85H22v2.47h3.36v1.85H22v2.64h4.33v1.9H19.51V17.42Zm-9.55,6.11c0-.11.05-.22.08-.3l.19-.66.27-.93A1.37,1.37,0,0,0,16.33,20a1.27,1.27,0,0,0-.39-.06H15.5l-.1,0-.15-.07a3,3,0,0,0-.78-.22,3.38,3.38,0,0,0-.45,0,3.43,3.43,0,0,0-.56,0,3.83,3.83,0,0,0-.58.16.79.79,0,0,1-.22.06c-.12,0-.13-.12-.28-.12a.68.68,0,0,0-.2.07h0a5.12,5.12,0,0,1,.58,1.41v.1l-2,.79-.36-.86s-.37.25-.58.37a3.23,3.23,0,0,1,0,.44,16,16,0,0,1-.17,1.71s-.05.06-.1.06-.59-.05-.7-.24L9,22.26l.07-.94.69-1.58.11-.25.2.47.81,1.93,1.75-.69h0A5.11,5.11,0,0,0,12,19.72v-.07l.46-.17-.11-.3.11-.1h0L12.35,19l-.18-.19L12,18.6l-.1-.08h0l0-.07.09-.16a1.86,1.86,0,0,0,.19-.33,1,1,0,0,0,.09-.22v-.08a1.4,1.4,0,0,0,.06-.28.49.49,0,0,0,0-.17h0a.52.52,0,0,0-.09-.29l-.06-.09h0l-.06,0a.33.33,0,0,0-.13-.11.19.19,0,0,0-.1-.05v-.09H11.8l-.15,0h0c0-.1.13-.12.17-.18a0,0,0,0,0,0,0,0,0,0,0,0,0,0v-.06h0l0,0a.7.7,0,0,0,.19-.36v-.15a.33.33,0,0,0,0-.14v0a.61.61,0,0,0-.23-.39l-.1-.07h0L11.58,15h0L11.45,15H11l0,.1h0c-.07.06-.18.08-.21.14l-.13.26-.21.24s0,.07,0,.09l-.2,0v-.1s-.15-.19-.23-.19H9.7a1.19,1.19,0,0,1-.44-.73h0a.11.11,0,0,0-.11,0,.2.2,0,0,0-.11,0,.7.7,0,0,0-.17.13l-.08,0-.08.12a.2.2,0,0,0,0,.2h0a1.5,1.5,0,0,0,.79.63h0a.52.52,0,0,0-.14.22H9v.95H9v.11l.05.12h0a.51.51,0,0,0,.32.19h.55l-.74.91.31.25-.12.14c-.06,0-.39.06-.36.21V19a1.2,1.2,0,0,0,.13.21c0,.07.17.07.21.18a.4.4,0,0,0-.13.16,4.12,4.12,0,0,1-.49-.69c-.4.09-1.36.62-1.61.7a5.3,5.3,0,0,1-.55.1.61.61,0,0,1,0,.18l-.16.1a.32.32,0,0,0-.13.1,1.56,1.56,0,0,1-.09.64c0,.07-.06.14-.08.21V21l0,.17V22a1,1,0,0,0,.09.29h0a.65.65,0,0,0,.17-.08l.1-.07.18,0a1.07,1.07,0,0,1-.25.31l-.06,0H6.35a2.46,2.46,0,0,1-.31.09,8.45,8.45,0,0,0-.84.19.74.74,0,0,0-.38-.07.5.5,0,0,0-.43.42c0,.17.08.21.1.3s.22,1.17.24,1.33a1.31,1.31,0,0,1,0,.28s0,.21-.05.28v.12a.47.47,0,0,0,.18.31h0l0,.15a2.3,2.3,0,0,0,.43.68h0l.4-.72h0a1.53,1.53,0,0,0-.31-.4l0,0-.12-.11h0a.48.48,0,0,0-.16-.36l0,0a14.44,14.44,0,0,1,0-1.5,1.33,1.33,0,0,0,.43-.17l1.29.1.2-.05H7.2a.41.41,0,0,0,.22-.07.34.34,0,0,0,.13-.2v-.06h0v-.11a.16.16,0,0,0,0-.09l.19-.07.17-.1a1.3,1.3,0,0,0,.32-.34c0-.05.06-.1.08-.14a1.16,1.16,0,0,1-.52.72V23a.59.59,0,0,1-.14.27.65.65,0,0,1-.31.18c.1.34.31.95.31,1a6.13,6.13,0,0,0,.33.8,7.13,7.13,0,0,0,.11.77.48.48,0,0,1,0,.17s0,.32,0,.76V27a.12.12,0,0,1,0,.1h0l0,.06L8,27.26a2.39,2.39,0,0,0-.13.21l0,.12v0a1.78,1.78,0,0,0-.14.5h.9V28a1.1,1.1,0,0,1,.14-.59.69.69,0,0,1,.14-.25c0-.13,0-.25-.07-.38a3,3,0,0,0-.23-.38l-.06-1.12c0-.05.08-.43.11-.63a2,2,0,0,1,.18-.58s-.1-.15-.14-.21h0c.05,0,.91.29.91.29a3.58,3.58,0,0,1,.26-.29,8.87,8.87,0,0,0,1.14-.14,9.54,9.54,0,0,0,1.57-.41l.25-.09h0v.21a2,2,0,0,0,.18.64,1,1,0,0,0,.15.24h0a1.06,1.06,0,0,0-.09.25v.37a11.64,11.64,0,0,0-1,1.38h0a.42.42,0,0,0-.21.4.33.33,0,0,0,0,.14.51.51,0,0,0,.07.15l0,.15a1.93,1.93,0,0,0,0,.34h0a1.64,1.64,0,0,0,.1.49.41.41,0,0,0,0,.09l.73-.5h0a1.63,1.63,0,0,0-.11-.23c0-.08-.09-.16-.14-.24a.47.47,0,0,0,.14-.29v-.11a.57.57,0,0,0-.11-.33,5.62,5.62,0,0,1,.35-.5,3,3,0,0,1,.39-.41,1.08,1.08,0,0,1,.3-.11l.21,0,.24,0h0l-.06-.18h0v-.21a.18.18,0,0,1,0-.14v0l0-.05h0l.31-.39h0a2.78,2.78,0,0,1-.33-.51,2.33,2.33,0,0,1-.11-.28,1.89,1.89,0,0,1-.1-.36l0-.17h0l-.12-.09a1.54,1.54,0,0,1-.28-.29l-.13-.21v-.05l0,0a1.5,1.5,0,0,0,.49.45h.06l.11,0,0,.16a.68.68,0,0,0,.07.23c0,.08,0,.13.06.19s.09.2.14.3a2.92,2.92,0,0,0,.21.32l.05.07a2.43,2.43,0,0,0,.54.47,1.48,1.48,0,0,0,.33.17l.1,0a.87.87,0,0,0,.28.35.8.8,0,0,1,.17.15,1.63,1.63,0,0,1,.18.43,5.12,5.12,0,0,1,.19.67v.27c0,.05-.13.47-.13.52h0a1.32,1.32,0,0,0-.44.58,1.42,1.42,0,0,0-.12.4h.76a2,2,0,0,1,.09-.35,2.17,2.17,0,0,1,.31-.53.47.47,0,0,1,.1-.1V27.1h0a1.76,1.76,0,0,0-.12-.45.58.58,0,0,1-.05-.14s-.07-.92-.07-1a5.24,5.24,0,0,1,.29-.64l-.14-.16a.66.66,0,0,1-.25-.34s0,0,0-.09v0a1,1,0,0,0,.59.19.86.86,0,0,1-.32-.87Zm-4.34-4.15h0l-.63.23h0l.58-.45h0Zm0-.38h0l-.29.22-.69.59-.05-.06L12,19h0l.07-.09Zm-.68-.38.05-.05,0,0h0l.32.27-1,1.06,0,0-.58-.46a2.74,2.74,0,0,0,.53-.23,2.9,2.9,0,0,0,.58-.41h0l0,0Zm-1.17-3,.1-.07.15.13h0l.07,0a.29.29,0,0,0,.08-.14h0a.08.08,0,0,0-.05-.08l-.12-.06a.09.09,0,0,0,0-.07.57.57,0,0,1,.08-.13l.1,0,.12-.07v.39h.09v-.21l0-.32h.16a1.28,1.28,0,0,1,0,.27l0,.27h.09a1.45,1.45,0,0,1,.06-.3l.07-.25a.86.86,0,0,1,.23.06h0l.14.08h0l.08.09.1.14v.18h-.36a.57.57,0,0,1-.16.27.51.51,0,0,1-.21.15h-.09v.24h-.07V15.8H11v.08h0l-.1.1h0l-.11.15-.07-.05L10.67,16v-.14l0-.07,0,0,0,0-.06,0Zm-.49.4c-.2,0-.19-.1-.19-.1h.34s0,.11-.15.12Zm-.26-.5H10s.12.08.13.15a.38.38,0,0,1,0,.15H9.76a.28.28,0,0,1,0-.28Zm-1-.38h0A.4.4,0,0,1,8.91,15,1.59,1.59,0,0,1,9,14.84c.06,0,.1,0,.11,0h0a0,0,0,0,1,0,0,.43.43,0,0,1-.11.21C8.91,15.15,8.8,15.21,8.77,15.19Zm.47.46a1.44,1.44,0,0,1-.42-.36l.09,0a1.09,1.09,0,0,0,.17-.13A.76.76,0,0,0,9.19,15a1.66,1.66,0,0,0,.46.59v.06h0a.38.38,0,0,0,0,.15A1.48,1.48,0,0,1,9.24,15.65Zm.18.62s0-.12,0-.28l.09-.11.08.06a.43.43,0,0,0,0,.07h.06a.23.23,0,0,0,.1.12.72.72,0,0,1-.19.11S9.46,16.31,9.42,16.27Zm.35.36v-.27a.12.12,0,0,1,0-.09l.1-.07v0a.34.34,0,0,0,.2,0,.41.41,0,0,0,.11-.07.21.21,0,0,0,0-.12h.1v.17h0a.21.21,0,0,0,0,.11.35.35,0,0,0,.08.24.44.44,0,0,0,.35.18.43.43,0,0,1,0,.16,1.77,1.77,0,0,1-.08.25,1,1,0,0,0-.07.39l-.14-.12.08-.32.06-.23a.61.61,0,0,1-.38-.27l-.24.07Zm-.46,1.75.95-1,.62.5v.07c0,.06-.05.1-.08.16a1.3,1.3,0,0,1-.1.15l-.14.15h0a1.36,1.36,0,0,1-.46.28,1.13,1.13,0,0,1-.32.06Zm0,.87-.06-.05L9.15,19c0-.11.24-.1.3-.14s.07-.1.15-.14v.06a.81.81,0,0,0,0,.22,1,1,0,0,0,0,.3l-.13.05a.6.6,0,0,0-.21-.14Zm7.29,2.29a1.5,1.5,0,0,1-.33.89h0c.06-.21.12-.42.16-.64v-.43a3.33,3.33,0,0,0-.27-.88h0a1.72,1.72,0,0,1,.28.37v0a1.29,1.29,0,0,1,.14.51v.13Zm24.8-4.08v2H39.11v8.7H36.67v-8.7H34.44v-2Zm8.41,0h2.63c1.7,0,5.16,0,5.16,5.25,0,2-.62,3.81-1.83,4.67a4.77,4.77,0,0,1-3.06.75H49.79Zm2.42,8.82h.42c1,0,2.34-.11,2.34-3.61,0-3.29-1.36-3.4-2.34-3.4h-.42Zm-6.39-8.86L49,28.13H46.53L46,25.93H42.83l-.52,2.2H40l3.35-10.71Zm-.33,6.67-1.12-4.37L43.3,24.09Zm28.9-1.47c0,2-.37,5.51-4,5.51s-4-3.35-4-5.51.41-5.52,4-5.52S74.41,20.4,74.41,22.62Zm-5.52,0c0,2.3.24,3.6,1.47,3.6s1.47-1.33,1.47-3.6S71.64,19,70.36,19,68.89,20.3,68.89,22.62Zm-5.78-5.2,3.17,10.71H63.79l-.58-2.2H60.1l-.55,2.2H57.29l3.35-10.71Zm1.45-2.17a2.47,2.47,0,0,1-2,1.24,3.23,3.23,0,0,1-1.39-.4,2.39,2.39,0,0,0-.75-.21c-.32,0-.47.14-.84.49l-.73-.49c.8-1,1.34-1.17,1.89-1.17a3.65,3.65,0,0,1,1.45.4,2,2,0,0,0,.76.2c.35,0,.58-.28.81-.59Zm-1.78,8.84-1.13-4.37-1.08,4.37Z" transform="translate(-4.37 -4.31)" />
</svg>