<?xml version="1.0" encoding="utf-8"?>
<!-- Generator: Adobe Illustrator 24.0.3, SVG Export Plug-In . SVG Version: 6.00 Build 0)  -->
<svg version="1.1" id="logo-estadao-saude-e-ciencia"
	 xmlns="http://www.w3.org/2000/svg" xmlns:xlink="http://www.w3.org/1999/xlink" x="0px" y="0px" viewBox="0 0 411.6 38.1"
	 style="enable-background:new 0 0 411.6 38.1;" xml:space="preserve">
<style type="text/css">
	.st0{fill-rule:evenodd;clip-rule:evenodd;fill:#FFFFFF;}
	.st1{fill:#FFFFFF;}
</style>
<path id="estadao" class="st0" d="M76,24.8l-1.5-5.6l-1.4,5.6H76z M78.3,13.4c-0.5,0.9-1.5,1.5-2.5,1.6c-0.6,0-1.2-0.2-1.8-0.5
	c-0.3-0.1-0.6-0.2-1-0.2c-0.4,0-0.6,0.2-1.1,0.6l-1-0.7c1-1.2,1.7-1.5,2.4-1.5c0.7,0,1.3,0.2,1.9,0.5c0.3,0.1,0.6,0.2,1,0.2
	c0.5,0,0.7-0.4,1.1-0.7L78.3,13.4L78.3,13.4z M76.4,16.2l4.1,13.7h-3.2l-0.7-2.8h-4l-0.7,2.8h-2.9l4.3-13.7H76.4z M83.9,22.9
	c0,2.9,0.3,4.6,1.9,4.6c1.6,0,1.9-1.7,1.9-4.6c0-2.9-0.3-4.6-1.9-4.6C84.2,18.3,83.9,19.9,83.9,22.9L83.9,22.9z M91,22.9
	c0,2.5-0.5,7.1-5.2,7.1c-4.6,0-5.2-4.3-5.2-7.1c0-2.6,0.5-7.1,5.2-7.1C90.3,15.8,91,20,91,22.9L91,22.9z M53.6,24.8l-1.4-5.6
	l-1.4,5.6H53.6z M54.1,16.2l4.1,13.7H55l-0.7-2.8h-4l-0.7,2.8h-2.9l4.3-13.7H54.1z M62.3,27.6h0.5c1.3,0,3-0.1,3-4.6
	c0-4.2-1.8-4.4-3-4.4h-0.5V27.6z M59.2,16.2h3.4c2.2,0,6.7,0,6.7,6.8c0,2.6-0.8,4.9-2.4,6c-1.2,0.7-2.6,1.1-3.9,0.9h-3.8L59.2,16.2z
	 M48.3,16.2v2.6h-2.9v11.1h-3.2V18.8h-2.9v-2.6L48.3,16.2z M16.2,21.5c0,0.4-0.2,0.8-0.4,1.1l0,0c0.1-0.3,0.2-0.5,0.2-0.8v-0.6
	c-0.1-0.4-0.2-0.8-0.4-1.1l0,0l0,0c0.1,0.1,0.3,0.3,0.4,0.5l0,0c0.1,0.2,0.2,0.4,0.2,0.7L16.2,21.5L16.2,21.5z M6.8,18.5
	C6.8,18.5,6.8,18.5,6.8,18.5c-0.1-0.1-0.2-0.2-0.2-0.3c0-0.1,0.3-0.1,0.4-0.2s0.1-0.1,0.2-0.2v0l0,0.1c0,0.1,0,0.2,0,0.3
	c0,0.1,0,0.2,0,0.4c-0.1,0-0.1,0-0.2,0.1C7,18.7,6.9,18.6,6.8,18.5L6.8,18.5z M6.8,17.4l1.2-1.3l0.8,0.6l0,0.1
	c0,0.1-0.1,0.1-0.1,0.2s-0.1,0.1-0.1,0.2c-0.1,0.1-0.1,0.1-0.2,0.2l0,0c-0.2,0.2-0.4,0.3-0.6,0.4c-0.1,0-0.3,0.1-0.4,0.1L6.8,17.4
	L6.8,17.4z M7.4,15.2v-0.4c0,0,0-0.1,0-0.1c0,0,0.1-0.1,0.1-0.1l0,0c0.1,0,0.2,0,0.3,0c0,0,0.1,0,0.1-0.1c0,0,0.1-0.1,0.1-0.1l0.1,0
	v0.2l0,0c0,0,0,0.1,0,0.1c0,0.1,0,0.2,0.1,0.3c0.1,0.1,0.3,0.2,0.5,0.2c0,0.1,0,0.1,0,0.2c0,0.1-0.1,0.2-0.1,0.3
	c-0.1,0.2-0.1,0.3-0.1,0.5l-0.2-0.1l0.1-0.4l0.1-0.3c-0.2,0-0.4-0.2-0.5-0.3c-0.1,0-0.2,0.1-0.3,0.1L7.4,15.2z M7,14.8
	c-0.1,0,0-0.2,0.1-0.4c0,0,0.1-0.1,0.1-0.1c0.1,0,0.1,0,0.1,0.1c0,0,0,0.1,0.1,0.1c0,0,0.1,0,0.1,0c0,0.1,0.1,0.1,0.1,0.1
	c-0.1,0.1-0.2,0.1-0.2,0.1C7.2,14.8,7,14.8,7,14.8L7,14.8z M6.8,14c-0.2-0.1-0.4-0.3-0.5-0.5c0,0,0.1,0,0.1-0.1
	c0.1,0,0.2-0.1,0.2-0.2c0.1-0.1,0.1-0.1,0.2-0.2c0.1,0.3,0.3,0.6,0.6,0.8l0,0.1v0c0,0.1,0,0.1,0,0.2C7.1,14.1,6.9,14,6.8,14L6.8,14z
	 M6.2,13.4L6.2,13.4C6.1,13.4,6.1,13.3,6.2,13.4c0-0.1,0.1-0.2,0.2-0.3c0.1,0,0.1-0.1,0.2-0.1c0.1,0,0.1-0.1,0.1,0h0l0,0
	c0,0,0,0,0,0c0,0.1-0.1,0.2-0.2,0.3C6.3,13.3,6.2,13.4,6.2,13.4L6.2,13.4z M7.4,13.9l0.3,0c0,0,0.2,0.1,0.2,0.2c0,0.1,0,0.1,0,0.2
	l-0.5,0C7.3,14.2,7.4,14,7.4,13.9L7.4,13.9z M7.8,14.5c-0.3,0-0.2-0.1-0.2-0.1l0.4,0C8,14.4,8,14.5,7.8,14.5L7.8,14.5z M8.4,14
	c0,0,0.1-0.1,0.1-0.1c0.1,0,0.1,0.1,0.2,0.2l0,0c0,0.1,0.1,0.1,0.2,0C9,14.1,9,14,8.9,14c0,0,0,0,0,0l0,0c0,0,0-0.1-0.1-0.1
	c0,0-0.1,0-0.2-0.1c0,0,0-0.1,0-0.1c0-0.1,0-0.1,0.1-0.1l0.1-0.1c0.1,0,0.1-0.1,0.2-0.1c0,0.1,0,0.1,0,0.2v0l0,0.1v0.2h0.1v-0.2
	l0-0.1l0-0.4l0,0l0.1,0h0l0.1,0c0,0.1,0,0.2-0.1,0.3l-0.1,0.3v0h0.1l0,0c0-0.1,0-0.3,0.1-0.4c0-0.1,0.1-0.2,0.1-0.3
	c0.1,0,0.2,0,0.3,0.1l0,0c0.1,0,0.1,0.1,0.2,0.1l0,0c0,0,0.1,0.1,0.1,0.1l0.1,0.2c0,0,0,0.1,0,0.1l0,0.1l0,0.1v0l0,0l-0.1,0
	c-0.1,0-0.2,0-0.3,0h0l-0.1,0l0,0c0,0.1-0.1,0.3-0.2,0.4c-0.1,0.1-0.2,0.1-0.3,0.2l-0.1,0l0,0l0,0.1v0.1l-0.1,0v-0.1l0,0v-0.2l0-0.1
	v-0.1H9v0.1l0,0l-0.1,0.1l0,0l0,0l0,0l-0.1,0.1c0,0-0.1,0-0.1-0.1l-0.1-0.1l0,0l0-0.1l0,0l0,0l0-0.1c0,0,0,0,0-0.1
	C8.4,14.1,8.4,14.1,8.4,14C8.4,14.1,8.4,14,8.4,14L8.4,14z M9.9,17.8L9.9,17.8l0.1-0.1l0,0l0.4,0.3l-1.2,1.4l0,0l-0.7-0.6
	c0.2-0.1,0.5-0.2,0.7-0.3C9.3,18.3,9.6,18.1,9.9,17.8L9.9,17.8L9.9,17.8L9.9,17.8z M10.8,18.3L10.8,18.3l-0.4,0.3l-0.9,0.7l-0.1-0.1
	l0.9-1l0,0l0,0l0.1-0.1L10.8,18.3z M10.8,18.8L10.8,18.8L10,19.1l-0.1,0l0.7-0.6l0,0L10.8,18.8L10.8,18.8z M16.4,24
	c0-0.1,0.1-0.3,0.1-0.4l0.2-0.8l0.4-1.2c0.3-0.9-0.3-1.9-1.2-2.2c-0.2,0-0.3-0.1-0.5-0.1c-0.1,0-0.2,0-0.3,0c-0.1,0-0.1,0-0.2,0
	l-0.1,0l-0.1,0l-0.1,0l-0.2-0.1c-0.3-0.1-0.7-0.2-1-0.3c-0.2,0-0.4,0-0.6,0c-0.2,0-0.5,0-0.7,0.1c-0.3,0-0.5,0.1-0.7,0.2
	c-0.1,0-0.2,0.1-0.3,0.1c-0.2,0-0.2-0.2-0.4-0.2c-0.1,0-0.2,0.1-0.3,0.1l0,0c0.4,0.6,0.6,1.2,0.8,1.8l0,0l0,0.1l-2.6,1L8.4,21
	c0,0-0.5,0.3-0.7,0.5c0,0.2,0,0.4,0,0.6c0,0.7-0.2,1.8-0.2,2.2c0,0-0.1,0.1-0.1,0.1S6.6,24.3,6.4,24l0.1-1.6l0.1-1.2l0.9-2l0.1-0.3
	l0.3,0.6l1.1,2.5l2.3-0.9v0l0,0l0,0c-0.2-0.7-0.5-1.3-0.8-1.9l0,0c0,0,0,0,0-0.1l0.6-0.2l-0.2-0.4l0.2-0.1l0,0l-0.1-0.1l-0.2-0.2
	l-0.3-0.2l-0.1-0.1l0,0l0.1-0.1l0.1-0.2c0.1-0.1,0.2-0.3,0.2-0.4c0-0.1,0.1-0.2,0.1-0.3c0,0,0-0.1,0-0.1c0-0.1,0.1-0.2,0.1-0.4
	c0-0.1,0-0.1,0-0.2v0c0-0.1,0-0.3-0.1-0.4c0,0,0-0.1-0.1-0.1l0,0c0,0,0-0.1-0.1-0.1c-0.1,0-0.1-0.1-0.2-0.1c0,0-0.1,0-0.1-0.1l0-0.1
	l-0.1,0c-0.1,0-0.1,0-0.2,0.1h0c0-0.1,0.2-0.1,0.2-0.2c0,0,0,0,0,0c0,0,0,0,0,0c0,0,0-0.1,0-0.1l0,0c0,0,0,0,0,0l0,0l0,0l0,0
	c0.1-0.1,0.2-0.3,0.3-0.5l0,0l0-0.1c0-0.1,0-0.1,0-0.2l0-0.1c0-0.2-0.1-0.4-0.3-0.5c0,0-0.1-0.1-0.1-0.1l0,0c-0.1,0-0.1-0.1-0.2-0.1
	l0,0l0,0c-0.1,0-0.1,0-0.2,0c-0.1,0-0.1,0-0.2,0l-0.1,0h0l0,0l-0.1,0H9.1l0,0l0,0L9,13.2l0,0l0,0c-0.1,0.1-0.2,0.1-0.3,0.2l-0.2,0.3
	c0,0-0.3,0.3-0.3,0.3c0,0.1,0,0.1,0,0.1l-0.2-0.1c0,0,0-0.1,0-0.1c0,0-0.2-0.2-0.3-0.2l-0.4,0c-0.3-0.2-0.5-0.5-0.6-0.9v0l0,0l0,0
	c0,0-0.1,0-0.1,0c-0.1,0-0.1,0-0.2,0.1c-0.1,0-0.2,0.1-0.2,0.2L6.2,13c0,0-0.1,0.1-0.1,0.1C6,13.3,6,13.4,6,13.4l0,0
	c0.2,0.4,0.6,0.6,1,0.8l0,0c-0.1,0.1-0.1,0.2-0.2,0.3H6.5v1.2l0,0.1l0,0.1l0,0c0,0.1,0,0.1,0.1,0.2l0,0c0.1,0.1,0.2,0.2,0.4,0.2
	l0.1,0h0.6l-1,1.1c0,0,0.3,0.2,0.4,0.3C7,17.8,7,17.9,6.9,18c-0.1,0-0.5,0.1-0.5,0.3c0,0,0,0,0,0.1c0,0.1,0.1,0.2,0.2,0.3
	c0.1,0.1,0.2,0.1,0.3,0.2c-0.1,0-0.1,0.1-0.2,0.2c-0.2-0.3-0.5-0.6-0.6-0.9C5.6,18.2,4.4,18.9,4,19c-0.2,0.1-0.5,0.1-0.7,0.1
	c0,0.1,0.1,0.2,0.1,0.2c0,0-0.1,0.1-0.2,0.1c-0.1,0-0.1,0.1-0.2,0.1c0,0.3,0,0.6-0.1,0.8c0,0.1-0.1,0.2-0.1,0.3l0,0.1l0,0.2
	c0,0.1,0,0.2,0,0.3v0.2c0,0.1,0,0.2,0,0.4l0,0.1l0,0.1c0,0.1,0.1,0.3,0.1,0.4l0,0l0,0v0l0,0c0.1,0,0.1-0.1,0.2-0.1l0.1-0.1
	c0,0,0.1-0.1,0.1-0.1c-0.1,0.2-0.2,0.3-0.3,0.4l-0.1,0.1l-0.1,0c0,0-0.3,0.1-0.4,0.1c-0.4,0.1-0.7,0.1-1.1,0.2
	c-0.1,0-0.2-0.1-0.5-0.1c-0.3,0-0.5,0.3-0.6,0.5c0,0.2,0.1,0.3,0.1,0.4c0,0.1,0.3,1.5,0.3,1.7c0,0.1,0,0.2,0,0.4
	c0,0-0.1,0.3-0.1,0.4v0c0,0,0,0.1,0,0.1c0,0.2,0.1,0.3,0.2,0.4l0,0L1.2,27c0.1,0.3,0.3,0.6,0.6,0.9l0,0L2.2,27l0,0
	c-0.1-0.2-0.2-0.4-0.4-0.5l-0.1-0.1l-0.2-0.1l0,0c0-0.2-0.1-0.4-0.2-0.5l-0.1-0.1c0,0-0.1-1.4,0-1.9c0.2,0,0.4-0.1,0.6-0.2
	c0,0,1.6,0.1,1.7,0.1c0.1,0,0.2,0,0.3-0.1l0.3,0c0.1,0,0.2,0,0.3-0.1c0.1-0.1,0.1-0.2,0.2-0.3l0-0.1v-0.1l0-0.1c0,0,0-0.1,0-0.1
	c0.1,0,0.2-0.1,0.2-0.1c0.1,0,0.1-0.1,0.2-0.1c0.2-0.1,0.3-0.3,0.4-0.4c0-0.1,0.1-0.1,0.1-0.2c-0.1,0.4-0.3,0.7-0.7,0.9l0,0.1
	c0,0.1,0,0.1,0,0.2c0,0.1-0.1,0.2-0.2,0.3c-0.1,0.1-0.2,0.2-0.4,0.2c0.1,0.4,0.4,1.2,0.4,1.3c0.1,0.3,0.3,0.7,0.4,1
	c0,0.3,0.1,0.7,0.1,1c0,0.1,0,0.1,0,0.2c0,0.1,0,0.4,0.1,1c0,0.1,0,0.1,0,0.1c0,0,0,0.1-0.1,0.1l0,0l-0.1,0.1l-0.1,0.1
	C5.1,28.9,5,29,5,29.1l-0.1,0.1l0,0.1c-0.1,0.2-0.1,0.4-0.2,0.6h1.2c0-0.1,0-0.1,0-0.2c0-0.3,0-0.5,0.2-0.7c0-0.1,0.1-0.2,0.2-0.3
	c0-0.2,0-0.3-0.1-0.5C6,28,5.9,27.8,5.8,27.7l-0.1-1.4c0-0.1,0.1-0.5,0.1-0.8c0-0.3,0.1-0.5,0.2-0.8c0,0-0.1-0.2-0.2-0.3l0,0h0
	c0.1,0.1,1.2,0.4,1.2,0.4c0.1-0.1,0.2-0.3,0.3-0.4c0.5,0,1-0.1,1.5-0.2c0.7-0.1,1.4-0.3,2-0.5l0.3-0.1l0,0v0.1c0,0.1,0,0.1,0,0.2
	c0,0.3,0.1,0.6,0.2,0.8c0.1,0.1,0.1,0.2,0.2,0.3l0,0c0,0.1-0.1,0.2-0.1,0.3c0,0.1,0,0.1,0,0.2c0,0.1,0,0.2,0,0.3
	c-0.5,0.6-0.9,1.2-1.3,1.8l0,0c-0.2,0.1-0.3,0.3-0.3,0.5c0,0.1,0,0.1,0,0.2c0,0.1,0.1,0.1,0.1,0.2l0,0.2c0,0.1,0,0.3,0,0.4v0
	c0,0.2,0.1,0.4,0.1,0.6c0,0,0,0.1,0.1,0.1l0.9-0.7l0,0c0-0.1-0.1-0.2-0.1-0.3c-0.1-0.1-0.1-0.2-0.2-0.3c0.1-0.1,0.2-0.2,0.2-0.4
	l0-0.1l0-0.1c0-0.1,0-0.3-0.1-0.4c0.1-0.2,0.3-0.4,0.4-0.6c0.2-0.2,0.3-0.4,0.5-0.5c0.1-0.1,0.3-0.1,0.4-0.1l0.3,0l0.3-0.1l0,0
	L12.8,26l0,0c0-0.1,0-0.2,0-0.3c0-0.1,0-0.1,0-0.2l0-0.1l0-0.1l0,0l0.4-0.5l0,0l0,0c-0.2-0.2-0.3-0.4-0.4-0.7
	c-0.1-0.1-0.1-0.2-0.1-0.4c-0.1-0.2-0.1-0.3-0.1-0.5l0-0.2l0,0L12.4,23c-0.1-0.1-0.3-0.2-0.4-0.4c-0.1-0.1-0.1-0.2-0.2-0.3l0-0.1
	l0,0.1c0.2,0.2,0.4,0.4,0.6,0.6l0,0l0.1,0l0.2,0.1l0,0.2c0,0.1,0.1,0.2,0.1,0.3s0.1,0.2,0.1,0.2c0.1,0.3,0.3,0.5,0.5,0.8l0.1,0.1
	c0.2,0.2,0.4,0.4,0.7,0.6c0.1,0.1,0.3,0.2,0.4,0.2l0.1,0c0.1,0.2,0.2,0.3,0.4,0.4c0.1,0.1,0.2,0.1,0.2,0.2c0.1,0.2,0.2,0.4,0.2,0.5
	c0.1,0.3,0.2,0.6,0.2,1c0,0.1,0,0.3,0,0.3s-0.2,0.6-0.2,0.7l0,0c-0.4,0.3-0.7,0.7-0.7,1.2h1c0-0.2,0.1-0.3,0.1-0.4
	c0.1-0.2,0.2-0.5,0.4-0.7c0,0,0.1-0.1,0.1-0.1c0,0,0-0.1,0-0.1v0c0-0.2-0.1-0.4-0.2-0.6c0-0.1-0.1-0.1-0.1-0.2
	c0-0.1-0.1-1.2-0.1-1.2c0.1-0.3,0.2-0.6,0.4-0.8c-0.1-0.1-0.1-0.1-0.2-0.2c-0.1-0.1-0.3-0.3-0.3-0.4c0-0.1-0.1-0.1-0.1-0.1
	c0,0,0,0,0-0.1c0.2,0.2,0.5,0.2,0.8,0.2C16.5,25,16.3,24.5,16.4,24L16.4,24L16.4,24z M28.8,16.2v2.4h-5.6v3.2h4.4v2.4h-4.4v3.4h5.6
	v2.4H20V16.2H28.8z M36.4,20c-0.2-1-1-1.7-2-1.7c-0.7-0.1-1.4,0.4-1.5,1.2c0,0,0,0.1,0,0.1c0,0.9,1,1.3,2.5,1.8c1.6,0.6,4,1.4,4,4.2
	c0,2.3-1.7,4.4-5.1,4.4c-1.4,0.1-2.8-0.5-3.8-1.4c-0.6-0.7-1-1.5-1.2-2.3l2.8-0.7c0.2,1.2,1.1,2,2.3,2c1.1,0,1.8-0.6,1.8-1.5
	c0-1-0.9-1.4-2-1.7c-2-0.7-4.3-1.5-4.3-4.3c0-2.1,1.4-4.2,4.6-4.2c3.6,0,4.3,2.3,4.6,3.2L36.4,20z M0.8,16.5c0,0.2,0.1,0.5,0.1,0.7
	c0.1,0.2,0.6,1.5,0.6,1.7c0,0.2,0,0.4,0,0.6c0.2,0.2,0.5,0.3,0.7,0.3c0.2,0,0.7-0.4,0.9-0.5c0-0.5-0.1-0.6-0.1-0.9
	c0.1-0.3,0.2-0.6,0.3-0.9c0.1-0.1,0.1-0.3,0-0.4c0.1,0.1,0.1,0.3,0.1,0.4c-0.1,0.3-0.3,0.8-0.3,1s0,0.4,0.1,0.5
	c0.6-0.1,1.1-0.2,1.6-0.5c0.4-0.2,0.8-0.4,1.2-0.6c-0.2-0.5-0.5-0.9-0.9-1.4c-0.3-0.3-0.6-0.6-1-0.9c-0.5-0.3-1.1-0.4-1.7-0.3
	c-0.4,0-0.7,0.1-1.1,0.2c0,0-0.3-0.3-0.6-0.2l0.2,0.4l-0.3,0.2C0.6,16.1,0.7,16.3,0.8,16.5L0.8,16.5z"/>
<g id="saude-ciencia" transform="translate(101.481)">
	<path id="saude-ciencia-1" class="st1" d="M3.1,34.8l-0.9,1.6H0.8L0.5,24.2h1.4C4.8,31.4,7.2,35,11.9,35c3.4,0,5.7-2.5,5.7-6.1
		c0-3.7-3.1-5.2-6.7-6.9l-2.1-1c-4.1-1.7-8.2-4.1-8.2-9.7c0-5.4,4.1-10,10.5-10c2.7-0.1,5.3,0.5,7.7,1.7L20,1.5h1.2L22,12.3h-1.3
		c-3.6-6.6-5.8-8.8-9.4-8.8C8.5,3.4,6.1,5.5,6,8.4c0,0.2,0,0.3,0,0.5c0,2.8,2.2,4.5,5.7,6l4.6,2.1c5,2.3,7.4,5.4,7.4,9.6
		c0,7-6.5,10.6-11.6,10.6C9.3,37.1,5.1,36.4,3.1,34.8z"/>
	<path id="saude-ciencia-2" class="st1" d="M26.5,31.9c0-4.7,6-7.3,12-8.9v-3.1c0-2.9-1.5-4.9-4.7-4.9c-1.1,0-2.2,0.4-3.2,1v0.2
		c1.3,0.4,2.3,1.6,2.3,3c0,1.5-1.3,2.8-2.8,2.8c-1.5,0.2-2.9-0.9-3.1-2.5c0-0.2,0-0.4,0-0.5c0-3.6,4.6-6.1,9.4-6.1
		c5.5,0,8.1,2.4,8.1,6.1v12.1c0,0.7,0.2,1.6,1.2,1.6c0.9,0,1.4-0.8,1.4-2.7l1.3,0c0,4.2-1.5,6.9-5.1,6.9c-2.3,0.1-4.2-1.7-4.2-4
		c0,0,0,0,0-0.1h-0.1c-1.4,2.6-4,4.2-6.9,4.2C28.6,37.1,26.5,35,26.5,31.9z M38.5,30.1v-5.8c-4,0.9-6.2,3.6-6.2,6.2
		c-0.2,1.5,1,2.9,2.5,3.1c0.1,0,0.1,0,0.2,0c1.9,0,3.5-1.5,3.6-3.4C38.5,30.2,38.5,30.2,38.5,30.1L38.5,30.1z"/>
	<path id="saude-ciencia-3" class="st1" d="M51.7,30.5V15.8L49,15.3v-1.4l8.6-0.5H58L57.9,20v8.2c0,2.5,0.3,5.1,3.6,5.1
		c1.6,0,3.1-0.9,3.9-2.3V15.8l-2.7-0.5v-1.4l8.7-0.4h0.3L71.5,20v14.2l2.9,0.3v1.3L66,36.9h-0.4l-0.2-4.5C63.2,35.6,60.7,37,58,37
		C55.1,37,51.7,35.7,51.7,30.5z M60.1,10.3l5.5-9.1L69.4,4l-8.1,7.1L60.1,10.3z"/>
	<path id="saude-ciencia-4" class="st1" d="M75.8,25.8c0-7.9,5-12.8,11.2-12.8c1.5-0.1,2.9,0.2,4.2,0.8V3.6l-3-0.5V1.8L96.9,1h0.6
		l0,10.1v23.2l2.9,0.3v1.2l-8,1h-0.6l-0.2-3.8c-1.3,1.8-4.1,4.1-6.5,4.1C80.4,37.1,75.8,33.4,75.8,25.8z M91.3,32.1V18.6
		c-0.1-2.5-1.6-4-3.9-4c-3.5,0-5.4,4-5.4,9.3c0,5.9,2.8,9.1,6.6,9.1C89.6,33,90.5,32.7,91.3,32.1L91.3,32.1z"/>
	<path id="saude-ciencia-5" class="st1" d="M101.7,25.6c0-6.8,4.6-12.7,11.3-12.7c5.7,0,8.8,3.3,8.8,8.2c0,0.6-0.1,1.3-0.2,1.9
		h-14.2v1c0,3.2,1.5,8.2,6.8,8.2c2.4,0.1,4.8-0.6,6.9-1.8l0.4,0.3c-0.5,2.4-4.1,6.3-8.8,6.3C105.1,37.1,101.7,32.2,101.7,25.6z
		 M116,21.3c0-0.3,0.1-0.6,0-0.9c0-3.1-1.2-5.7-3.9-5.7c-3.5,0-4.4,4.6-4.6,6.6H116z"/>
	<path id="saude-ciencia-6" class="st1" d="M124.6,27.4c0-5.5,3.8-8.9,8.5-10.5c-1.7-1.9-3.5-4.4-3.5-7.3c0-4,3.2-8,9.8-8
		c5.4,0,8.4,3.1,8.4,6.9c0,2.7-2.1,6.4-7.3,7.6c0.7,0.8,7.7,9.5,8.2,10.1c0.9-2.1,1.6-4.2,2-6.4l-3.9-1.2v-1.1h10.3v1.1l-3.9,1.3
		c-0.8,2.7-1.9,5.4-3.2,7.9l5.6,6.9l3.3,0.5v1.4h-10.2l-3.1-3.9c-2.6,3-6.4,4.6-10.4,4.5C128.7,37,124.6,32.5,124.6,27.4z
		 M144.8,31.3l-10.8-13.5c-2.3,1.4-3.1,4.4-3.1,7.2c0,5.2,3.4,8.5,8.1,8.5C141,33.5,143.1,32.8,144.8,31.3L144.8,31.3z M143.6,8
		c0-2.9-1.6-4.7-4.2-4.7c-3,0-4.1,2-4.1,4.2c0,1.7,1.5,3.9,3.1,5.9l1.4,1.6C142.1,13.4,143.5,10.8,143.6,8z"/>
	<path id="saude-ciencia-7" class="st1" d="M160.8,20c0-11.5,7.9-18.6,17.3-18.6c2.9-0.1,5.8,0.5,8.4,1.7l1.1-1.6h1.2l0.1,11.2h-1.3
		c-4.5-7.7-6.4-9.5-9.8-9.5c-6.3,0-9.8,6.2-9.8,14.4c0,9.4,5.2,14.4,12.5,14.4c3,0,5.9-0.7,8.6-1.9l0.4,1c-3,3.7-7.6,5.9-12.4,5.9
		C167.1,37.1,160.8,30,160.8,20z"/>
	<path id="saude-ciencia-8" class="st1" d="M191,35.1l2.8-0.3V16.6l-2.7-0.5V15l8.3-1.6h0.5c0,0.3,0,5,0,6.5v15l2.8,0.3v1.3H191
		V35.1z M193.6,6.4c0-1.9,1.5-3.4,3.4-3.5c1.9,0,3.4,1.5,3.4,3.4c0,0,0,0,0,0.1c0.1,1.9-1.4,3.5-3.3,3.6c-1.9,0.1-3.5-1.4-3.6-3.3
		C193.6,6.6,193.6,6.5,193.6,6.4z"/>
	<path id="saude-ciencia-9" class="st1" d="M204,25.6c0-6.8,4.6-12.7,11.3-12.7c5.7,0,8.8,3.3,8.8,8.2c0,0.6-0.1,1.3-0.2,1.9h-14.2
		v1c0,3.2,1.5,8.2,6.8,8.2c2.4,0.1,4.8-0.6,6.9-1.8l0.4,0.3c-0.5,2.4-4.1,6.3-8.8,6.3C207.5,37.1,204,32.2,204,25.6z M208.7,10.7
		l4.3-8.1h4l4.4,8l-1,0.7l-5.5-4.9l-5.1,4.9L208.7,10.7z M218.3,21.3c0-0.3,0.1-0.6,0-0.9c0-3.1-1.2-5.7-3.9-5.7
		c-3.5,0-4.4,4.6-4.6,6.6H218.3z"/>
	<path id="saude-ciencia-10" class="st1" d="M225.8,35.1l2.8-0.3V16.6l-2.7-0.5v-1.2l8-1.6h0.6l0.2,3.8c1.7-2.5,4.4-4.1,7.4-4.1
		c4.5,0,6.2,2.8,6.2,5.8v16.1l2.8,0.3v1.3h-11.6v-1.3l2.8-0.3V20.4c0-1.9-0.8-4-3.5-4c-1.7,0.1-3.3,1.1-4.1,2.7v15.8l2.8,0.3v1.3
		h-11.6V35.1z"/>
	<path id="saude-ciencia-11" class="st1" d="M252.5,25.7c0-7.7,5.1-12.7,11.8-12.7c5,0,7.4,2.5,7.4,4.9c0.2,1.9-1.2,3.5-3.1,3.7
		c-0.1,0-0.2,0-0.3,0c-1.7,0.1-3.2-1.2-3.3-2.9c0-0.1,0-0.2,0-0.3c0.1-1.2,0.7-2.3,1.8-3v-0.2c-0.8-0.3-1.7-0.4-2.6-0.3
		c-3.9,0-6.1,3.9-6.1,8.7c0,4.6,1.9,8.8,6.9,8.8c2.3,0,4.6-0.6,6.6-1.8l0.3,0.4c-1.3,3.7-4.8,6.2-8.7,6.2
		C255.4,37.1,252.5,31.1,252.5,25.7z"/>
	<path id="saude-ciencia-12" class="st1" d="M273.4,35.1l2.8-0.3V16.6l-2.7-0.5V15l8.3-1.6h0.5c0,0.3,0,5,0,6.5v15l2.8,0.3v1.3
		h-11.6V35.1z M276,6.4c0-1.9,1.5-3.4,3.4-3.5c1.9,0,3.4,1.5,3.4,3.4c0,0,0,0,0,0.1c0.1,1.9-1.4,3.5-3.3,3.6
		c-1.9,0.1-3.5-1.4-3.6-3.3C276,6.6,276,6.5,276,6.4L276,6.4z"/>
	<path id="saude-ciencia-12_1_" class="st1" d="M286.6,31.9c0-4.7,6-7.3,12-8.9v-3.1c0-2.9-1.5-4.9-4.7-4.9c-1.1,0-2.2,0.4-3.2,1
		v0.2c1.3,0.4,2.3,1.6,2.3,3c0,1.5-1.3,2.8-2.8,2.8c-1.5,0.2-2.9-0.9-3.1-2.5c0-0.2,0-0.4,0-0.5c0-3.6,4.6-6.1,9.4-6.1
		c5.5,0,8.1,2.4,8.1,6.1v12.1c0,0.7,0.2,1.6,1.2,1.6c0.9,0,1.4-0.8,1.4-2.7l1.3,0c0,4.2-1.5,6.9-5.1,6.9c-2.3,0.1-4.2-1.7-4.2-4
		c0,0,0,0,0-0.1H299c-1.4,2.6-4,4.2-6.9,4.2C288.8,37.1,286.6,35,286.6,31.9z M298.6,30.1v-5.8c-4,0.9-6.2,3.6-6.2,6.2
		c-0.2,1.5,1,2.9,2.5,3.1c0.1,0,0.1,0,0.2,0c1.9,0,3.5-1.5,3.6-3.4C298.6,30.2,298.6,30.2,298.6,30.1L298.6,30.1z"/>
</g>
</svg>
